<svg xmlns="http://www.w3.org/2000/svg" viewBox="0 0 600 500" fill="none">
  <path
    d="M310 45
       C 385 30, 470 58, 510 120
       C 548 178, 565 245, 540 310
       C 518 368, 475 405, 420 435
       C 372 460, 305 475, 245 458
       C 178 438, 120 400, 85 340
       C 52 283, 40 215, 65 155
       C 88 100, 140 68, 200 52
       C 245 40, 270 48, 310 45Z"
    fill="#C05C36"
    opacity="0.13"
  />
  <path
    d="M280 80
       C 340 62, 430 85, 480 145
       C 525 198, 530 270, 505 335
       C 482 394, 430 428, 370 445
       C 315 460, 248 448, 195 415
       C 138 380, 98 325, 85 265
       C 72 205, 82 148, 120 108
       C 158 70, 225 68, 280 80Z"
    fill="#C05C36"
    opacity="0.04"
  />
</svg>
