<svg xmlns="http://www.w3.org/2000/svg" viewBox="0 0 600 500" fill="none">
  <path
    d="M150 190
       C 170 120, 240 65, 320 55
       C 395 46, 465 78, 510 135
       C 550 185, 560 250, 535 318
       C 512 378, 468 420, 405 440
       C 338 462, 262 455, 205 418
       C 145 380, 108 328, 92 270
       C 78 218, 95 195, 115 195
       C 128 195, 138 210, 150 190Z"
    fill="#6E8060"
    opacity="0.11"
  />
  <path
    d="M200 165
       C 248 105, 335 72, 410 90
       C 478 106, 525 158, 545 225
       C 562 285, 548 352, 508 398
       C 465 448, 392 462, 325 448
       C 255 432, 192 392, 155 335
       C 120 282, 112 225, 135 185
       C 148 162, 175 168, 200 165Z"
    fill="#6E8060"
    opacity="0.04"
  />
</svg>
