<svg xmlns="http://www.w3.org/2000/svg" viewBox="0 0 600 500" fill="none">
  <path
    d="M260 35
       C 350 20, 455 50, 520 120
       C 578 182, 590 268, 565 345
       C 542 415, 488 458, 418 475
       C 342 492, 258 485, 188 450
       C 118 415, 62 358, 35 288
       C 10 222, 18 155, 55 102
       C 95 52, 165 38, 220 35
       C 238 34, 248 36, 260 35Z"
    fill="#EDE0CE"
    opacity="0.45"
  />
  <path
    d="M300 65
       C 380 48, 468 82, 525 148
       C 575 208, 580 288, 555 355
       C 530 418, 478 455, 410 468
       C 335 482, 252 472, 188 435
       C 128 400, 82 342, 62 278
       C 44 218, 52 158, 90 112
       C 130 70, 215 58, 300 65Z"
    fill="#EDE0CE"
    opacity="0.15"
  />
</svg>
