<svg xmlns="http://www.w3.org/2000/svg" viewBox="0 0 800 500" fill="none">
  <!-- Terrakota splash -->
  <path
    d="M520 40
       C 610 25, 720 70, 760 160
       C 795 240, 780 340, 730 410
       C 685 470, 610 490, 540 480
       C 465 468, 400 430, 360 370
       C 325 315, 310 250, 330 185
       C 348 128, 400 75, 460 50
       C 480 42, 500 38, 520 40Z"
    fill="#C05C36"
    opacity="0.10"
  />
  <!-- Sage splash -->
  <path
    d="M180 80
       C 260 50, 370 60, 430 130
       C 485 192, 490 280, 460 350
       C 432 415, 370 450, 300 455
       C 225 458, 155 430, 110 375
       C 68 322, 50 255, 65 190
       C 78 135, 115 95, 180 80Z"
    fill="#6E8060"
    opacity="0.08"
  />
  <!-- Cream accent -->
  <path
    d="M400 15
       C 500 5, 600 45, 660 120
       C 715 190, 730 285, 700 365
       C 672 440, 608 485, 530 495
       C 448 505, 362 488, 295 440
       C 232 395, 195 325, 185 250
       C 175 180, 195 110, 245 65
       C 295 22, 350 18, 400 15Z"
    fill="#EDE0CE"
    opacity="0.20"
  />
</svg>
